# xmcd
#
# Track frame offsets:
#	150
#	12308
#	27592
#	44484
#	58876
#	75904
#	91702
#	106161
#	119779
#	137987
#	152558
#	167264
#	183983
#	197677
#	217293
#
# Disc length: 3097 seconds
#
# Revision: 1
# Processed by: cddbd v1.5.2PL0 Copyright (c) Steve Scherf et al.
# Submitted via: audiograbber 1.83.01
#
DISCID=cb0c170f
DTITLE=Various Artist - CDX 658
DYEAR=2018
DGENRE=Country
TTITLE0=Sir Rosevelt - Something Bout You
TTITLE1=Hillbilly Vegas - Field Fulla Hillbillies
TTITLE2=Curtis Braly - Hate Me
TTITLE3=Rod Black  - Keepin' On
TTITLE4=Donovan Lee - Know You'll Never Change
TTITLE5=Tenille Arts - Moment Of Weakness
TTITLE6=Dave McElroy - Nowhere With You
TTITLE7=Jagertown - Rearview
TTITLE8=Brailey Lenderman - Remember All The Nights
TTITLE9=Aaron Watson - Run Wild Horses
TTITLE10=Ricky Cook - Thanks A Lot Loretta
TTITLE11=Gil Prather - Don't Fall In Love With A Cowboy
TTITLE12=Joe Denim ft. Rachel Holder - Together Were A Ten (Radio Edit)
TTITLE13=Benny Havens Band - When America Dreams
TTITLE14=Risa Binder - You Came Along
EXTD=
EXTT0=
EXTT1=
EXTT2=
EXTT3=
EXTT4=
EXTT5=
EXTT6=
EXTT7=
EXTT8=
EXTT9=
EXTT10=
EXTT11=
EXTT12=
EXTT13=
EXTT14=
PLAYORDER=
